<?xml version="1.0" encoding="UTF-8"?>
<svg xmlns="http://www.w3.org/2000/svg" xmlns:xlink="http://www.w3.org/1999/xlink" width="32px" height="32px" viewBox="0 0 32 32" version="1.1">
<defs>
<clipPath id="clip1">
  <path d="M 8.703125 18.613281 L 9.941406 18.613281 L 9.941406 19.949219 L 8.703125 19.949219 Z M 8.703125 18.613281 "/>
</clipPath>
<clipPath id="clip2">
  <path d="M 3.414062 2.59375 L 28.585938 2.59375 L 28.585938 29.410156 L 3.414062 29.410156 Z M 3.414062 2.59375 "/>
</clipPath>
</defs>
<g id="surface1">
<g clip-path="url(#clip1)" clip-rule="nonzero">
<path style=" stroke:none;fill-rule:nonzero;fill:rgb(29.411766%,93.725491%,62.7451%);fill-opacity:1;" d="M 8.703125 18.613281 L 9.941406 18.613281 L 9.941406 19.949219 L 8.703125 19.949219 Z M 8.703125 18.613281 "/>
</g>
<g clip-path="url(#clip2)" clip-rule="nonzero">
<path style=" stroke:none;fill-rule:nonzero;fill:rgb(29.411766%,93.725491%,62.7451%);fill-opacity:1;" d="M 25.914062 16 C 25.914062 15.324219 25.847656 14.664062 25.71875 14.03125 L 28.191406 11.882812 C 28.539062 11.582031 28.625 11.074219 28.394531 10.675781 L 26.8125 7.933594 C 26.582031 7.535156 26.097656 7.351562 25.660156 7.5 L 22.566406 8.566406 C 21.582031 7.699219 20.425781 7.023438 19.148438 6.589844 L 18.527344 3.378906 C 18.441406 2.925781 18.042969 2.59375 17.578125 2.59375 L 14.417969 2.59375 C 13.953125 2.59375 13.5625 2.921875 13.46875 3.378906 L 12.847656 6.589844 C 11.578125 7.015625 10.421875 7.699219 9.433594 8.566406 L 6.339844 7.5 C 5.902344 7.351562 5.417969 7.527344 5.1875 7.933594 L 3.605469 10.675781 C 3.375 11.074219 3.460938 11.582031 3.808594 11.882812 L 6.28125 14.03125 C 6.148438 14.664062 6.085938 15.324219 6.085938 16 C 6.085938 16.675781 6.148438 17.335938 6.28125 17.96875 L 3.808594 20.117188 C 3.460938 20.417969 3.375 20.925781 3.605469 21.324219 L 5.1875 24.066406 C 5.417969 24.464844 5.902344 24.648438 6.339844 24.5 L 9.433594 23.433594 C 10.414062 24.300781 11.574219 24.976562 12.847656 25.410156 L 13.46875 28.621094 C 13.554688 29.070312 13.953125 29.40625 14.417969 29.40625 L 17.578125 29.40625 C 18.042969 29.40625 18.4375 29.078125 18.527344 28.621094 L 19.148438 25.410156 C 20.417969 24.984375 21.578125 24.300781 22.566406 23.433594 L 25.660156 24.5 C 26.097656 24.648438 26.582031 24.472656 26.8125 24.066406 L 28.394531 21.324219 C 28.625 20.925781 28.539062 20.417969 28.191406 20.117188 L 25.71875 17.96875 C 25.847656 17.335938 25.914062 16.675781 25.914062 16 Z M 16.003906 21.203125 C 13.128906 21.203125 10.800781 18.871094 10.800781 16 C 10.800781 13.128906 13.128906 10.796875 16.003906 10.796875 C 18.875 10.796875 21.203125 13.128906 21.203125 16 C 21.203125 18.871094 18.875 21.203125 16.003906 21.203125 Z M 16.003906 21.203125 "/>
</g>
</g>
</svg>
