<?xml version="1.0" encoding="UTF-8"?>
<svg xmlns="http://www.w3.org/2000/svg" xmlns:xlink="http://www.w3.org/1999/xlink" width="32px" height="32px" viewBox="0 0 32 32" version="1.1">
<defs>
<clipPath id="clip1">
  <path d="M 1.28125 1.195312 L 30.902344 1.195312 L 30.902344 30.804688 L 1.28125 30.804688 Z M 1.28125 1.195312 "/>
</clipPath>
</defs>
<g id="surface1">
<g clip-path="url(#clip1)" clip-rule="nonzero">
<path style=" stroke:none;fill-rule:nonzero;fill:rgb(29.411766%,93.725491%,62.7451%);fill-opacity:1;" d="M 30.367188 14.183594 C 30.351562 14.0625 30.4375 13.957031 30.554688 13.941406 C 30.675781 13.925781 30.78125 14.011719 30.796875 14.128906 C 30.859375 14.625 30.894531 15.125 30.910156 15.632812 C 30.921875 16.140625 30.90625 16.640625 30.867188 17.140625 C 30.730469 18.882812 30.285156 20.574219 29.570312 22.140625 C 28.851562 23.710938 27.859375 25.152344 26.628906 26.394531 C 26.546875 26.480469 26.410156 26.480469 26.324219 26.394531 C 26.238281 26.3125 26.238281 26.175781 26.324219 26.089844 C 27.515625 24.882812 28.476562 23.480469 29.175781 21.960938 C 29.871094 20.441406 30.300781 18.796875 30.433594 17.105469 C 30.472656 16.613281 30.484375 16.125 30.476562 15.640625 C 30.464844 15.160156 30.425781 14.671875 30.367188 14.183594 M 24.707031 27.496094 C 24.804688 27.421875 24.941406 27.441406 25.011719 27.539062 C 25.085938 27.636719 25.066406 27.773438 24.96875 27.84375 C 24.257812 28.375 23.503906 28.839844 22.714844 29.234375 C 21.925781 29.628906 21.097656 29.953125 20.246094 30.199219 C 20.128906 30.234375 20.007812 30.167969 19.976562 30.050781 C 19.941406 29.9375 20.007812 29.816406 20.125 29.785156 C 20.949219 29.542969 21.75 29.230469 22.519531 28.847656 C 23.285156 28.460938 24.019531 28.011719 24.707031 27.496094 Z M 18.121094 30.214844 C 18.238281 30.199219 18.347656 30.28125 18.363281 30.398438 C 18.382812 30.519531 18.296875 30.628906 18.179688 30.644531 C 17.644531 30.71875 17.101562 30.765625 16.558594 30.785156 C 16.015625 30.800781 15.472656 30.789062 14.9375 30.746094 C 10.917969 30.429688 7.394531 28.535156 4.933594 25.710938 C 2.472656 22.890625 1.078125 19.140625 1.3125 15.117188 C 1.316406 14.996094 1.421875 14.90625 1.539062 14.910156 C 1.660156 14.917969 1.753906 15.019531 1.746094 15.140625 C 1.515625 19.046875 2.871094 22.6875 5.261719 25.425781 C 7.648438 28.167969 11.070312 30.007812 14.972656 30.3125 C 15.5 30.355469 16.027344 30.367188 16.546875 30.351562 C 17.070312 30.332031 17.597656 30.289062 18.121094 30.214844 Z M 2.828125 10.445312 C 2.78125 10.554688 2.65625 10.609375 2.542969 10.5625 C 2.433594 10.515625 2.378906 10.390625 2.425781 10.277344 C 3.46875 7.777344 5.152344 5.660156 7.246094 4.097656 C 9.34375 2.539062 11.851562 1.53125 14.546875 1.246094 C 14.664062 1.234375 14.773438 1.320312 14.785156 1.4375 C 14.796875 1.558594 14.710938 1.664062 14.589844 1.675781 C 11.976562 1.953125 9.539062 2.933594 7.507812 4.449219 C 5.472656 5.964844 3.839844 8.019531 2.828125 10.445312 Z M 8.933594 11.847656 C 8.863281 11.976562 8.695312 12.023438 8.566406 11.945312 C 8.4375 11.871094 8.390625 11.707031 8.464844 11.578125 C 9.296875 10.132812 10.5 8.988281 11.910156 8.226562 C 13.324219 7.464844 14.941406 7.085938 16.601562 7.179688 C 16.753906 7.1875 16.867188 7.316406 16.859375 7.464844 C 16.851562 7.617188 16.722656 7.730469 16.574219 7.722656 C 15.011719 7.632812 13.492188 7.988281 12.167969 8.703125 C 10.84375 9.417969 9.714844 10.496094 8.933594 11.847656 Z M 18.710938 8.128906 C 18.566406 8.082031 18.488281 7.929688 18.539062 7.785156 C 18.585938 7.644531 18.738281 7.566406 18.878906 7.613281 C 19.167969 7.707031 19.445312 7.816406 19.714844 7.9375 C 19.992188 8.0625 20.257812 8.199219 20.515625 8.347656 L 20.53125 8.359375 C 21.429688 8.878906 22.21875 9.546875 22.871094 10.328125 C 23.53125 11.113281 24.050781 12.015625 24.40625 12.996094 C 24.453125 13.136719 24.382812 13.292969 24.242188 13.34375 C 24.101562 13.394531 23.945312 13.320312 23.894531 13.179688 C 23.5625 12.261719 23.074219 11.417969 22.457031 10.675781 C 21.839844 9.941406 21.101562 9.3125 20.257812 8.824219 L 20.246094 8.816406 C 20 8.675781 19.75 8.546875 19.496094 8.433594 C 19.238281 8.316406 18.976562 8.214844 18.710938 8.128906 Z M 24.222656 14.367188 C 24.195312 14.21875 24.289062 14.078125 24.4375 14.046875 C 24.585938 14.019531 24.726562 14.113281 24.757812 14.261719 C 24.859375 14.777344 24.914062 15.300781 24.925781 15.832031 C 24.933594 16.359375 24.894531 16.886719 24.8125 17.40625 C 24.789062 17.554688 24.648438 17.65625 24.5 17.628906 C 24.351562 17.605469 24.253906 17.464844 24.277344 17.320312 C 24.355469 16.828125 24.390625 16.332031 24.382812 15.839844 C 24.375 15.351562 24.320312 14.859375 24.222656 14.367188 Z M 24.003906 18.464844 C 24.046875 18.324219 24.199219 18.242188 24.34375 18.289062 C 24.484375 18.332031 24.566406 18.484375 24.519531 18.628906 C 24.425781 18.933594 24.3125 19.238281 24.179688 19.535156 C 24.050781 19.828125 23.90625 20.117188 23.742188 20.394531 L 23.742188 20.398438 C 22.542969 22.476562 20.621094 23.882812 18.472656 24.484375 C 16.324219 25.082031 13.953125 24.871094 11.851562 23.714844 C 11.71875 23.640625 11.671875 23.476562 11.742188 23.34375 C 11.816406 23.214844 11.980469 23.164062 12.109375 23.238281 C 14.085938 24.324219 16.3125 24.523438 18.328125 23.960938 C 20.34375 23.398438 22.148438 22.078125 23.273438 20.125 C 23.425781 19.867188 23.5625 19.59375 23.683594 19.316406 C 23.804688 19.039062 23.910156 18.757812 24.003906 18.464844 Z M 9.941406 21.511719 C 10.039062 21.625 10.03125 21.796875 9.917969 21.894531 C 9.808594 21.996094 9.636719 21.984375 9.535156 21.875 C 8.457031 20.671875 7.753906 19.226562 7.449219 17.699219 C 7.148438 16.171875 7.25 14.566406 7.789062 13.046875 C 7.839844 12.902344 7.992188 12.828125 8.136719 12.878906 C 8.277344 12.929688 8.351562 13.085938 8.300781 13.226562 C 7.796875 14.652344 7.699219 16.160156 7.984375 17.59375 C 8.269531 19.027344 8.929688 20.386719 9.941406 21.511719 Z M 11.894531 11.1875 C 11.800781 11.265625 11.664062 11.253906 11.585938 11.164062 C 11.507812 11.070312 11.519531 10.933594 11.609375 10.855469 C 12.617188 9.996094 13.828125 9.453125 15.089844 9.257812 C 16.355469 9.058594 17.671875 9.207031 18.894531 9.71875 C 19.003906 9.765625 19.058594 9.890625 19.011719 10.003906 C 18.964844 10.113281 18.839844 10.164062 18.726562 10.121094 C 17.578125 9.636719 16.34375 9.5 15.15625 9.683594 C 13.972656 9.871094 12.839844 10.378906 11.894531 11.1875 Z M 20.222656 10.992188 C 20.128906 10.921875 20.109375 10.785156 20.183594 10.6875 C 20.257812 10.59375 20.394531 10.578125 20.488281 10.652344 C 20.675781 10.796875 20.855469 10.953125 21.03125 11.117188 C 21.203125 11.28125 21.367188 11.457031 21.523438 11.636719 C 22.0625 12.269531 22.480469 12.984375 22.765625 13.75 C 23.050781 14.519531 23.203125 15.335938 23.207031 16.164062 C 23.207031 16.285156 23.109375 16.382812 22.992188 16.382812 C 22.871094 16.382812 22.773438 16.285156 22.773438 16.167969 C 22.769531 15.386719 22.628906 14.621094 22.359375 13.902344 C 22.089844 13.183594 21.699219 12.511719 21.191406 11.917969 C 21.046875 11.75 20.894531 11.585938 20.730469 11.433594 C 20.570312 11.277344 20.402344 11.132812 20.222656 10.992188 Z M 22.703125 17.148438 C 22.71875 17.027344 22.832031 16.945312 22.949219 16.960938 C 23.066406 16.980469 23.148438 17.089844 23.132812 17.207031 C 23.074219 17.625 22.976562 18.03125 22.84375 18.433594 C 22.710938 18.832031 22.539062 19.214844 22.339844 19.585938 C 22.28125 19.6875 22.148438 19.726562 22.042969 19.671875 C 21.9375 19.613281 21.898438 19.480469 21.957031 19.375 C 22.148438 19.027344 22.304688 18.664062 22.429688 18.292969 C 22.554688 17.921875 22.648438 17.539062 22.703125 17.148438 Z M 21.449219 20.164062 C 21.519531 20.070312 21.65625 20.050781 21.753906 20.121094 C 21.847656 20.195312 21.867188 20.328125 21.796875 20.425781 C 21.640625 20.632812 21.472656 20.832031 21.300781 21.015625 C 21.125 21.203125 20.9375 21.378906 20.742188 21.546875 C 19.285156 22.789062 17.46875 23.335938 15.695312 23.214844 C 13.921875 23.09375 12.195312 22.304688 10.921875 20.875 C 10.84375 20.785156 10.851562 20.648438 10.941406 20.566406 C 11.03125 20.488281 11.167969 20.496094 11.25 20.585938 C 12.441406 21.925781 14.0625 22.667969 15.726562 22.78125 C 17.390625 22.894531 19.09375 22.382812 20.460938 21.21875 C 20.644531 21.0625 20.816406 20.894531 20.984375 20.71875 C 21.148438 20.542969 21.304688 20.355469 21.449219 20.164062 Z M 10.078125 18.710938 C 10.121094 18.824219 10.070312 18.949219 9.957031 18.996094 C 9.847656 19.042969 9.71875 18.988281 9.675781 18.878906 C 9.1875 17.6875 9.039062 16.414062 9.21875 15.1875 C 9.398438 13.960938 9.902344 12.777344 10.710938 11.78125 C 10.785156 11.6875 10.921875 11.671875 11.015625 11.746094 C 11.109375 11.824219 11.125 11.960938 11.050781 12.054688 C 10.289062 12.992188 9.816406 14.097656 9.648438 15.25 C 9.480469 16.402344 9.617188 17.597656 10.078125 18.710938 Z M 12.589844 17.167969 C 12.628906 17.3125 12.539062 17.460938 12.394531 17.5 C 12.25 17.539062 12.101562 17.453125 12.0625 17.304688 C 11.855469 16.53125 11.875 15.726562 12.097656 14.984375 C 12.316406 14.242188 12.742188 13.5625 13.34375 13.023438 C 13.453125 12.925781 13.625 12.933594 13.726562 13.046875 C 13.824219 13.15625 13.816406 13.328125 13.703125 13.429688 C 13.179688 13.894531 12.8125 14.492188 12.617188 15.140625 C 12.425781 15.789062 12.40625 16.488281 12.589844 17.167969 Z M 14.511719 12.878906 C 14.378906 12.945312 14.214844 12.890625 14.148438 12.757812 C 14.082031 12.625 14.136719 12.460938 14.269531 12.394531 C 14.402344 12.328125 14.535156 12.269531 14.667969 12.21875 C 14.804688 12.167969 14.941406 12.125 15.078125 12.085938 C 15.5625 11.957031 16.0625 11.914062 16.558594 11.957031 C 17.050781 12.003906 17.539062 12.132812 17.996094 12.347656 C 18.128906 12.410156 18.1875 12.570312 18.125 12.707031 C 18.0625 12.84375 17.898438 12.902344 17.765625 12.835938 C 17.367188 12.652344 16.941406 12.535156 16.511719 12.5 C 16.082031 12.460938 15.644531 12.496094 15.21875 12.613281 C 15.09375 12.644531 14.972656 12.683594 14.859375 12.726562 C 14.738281 12.773438 14.621094 12.824219 14.511719 12.878906 Z M 18.246094 13.109375 C 18.121094 13.027344 18.085938 12.859375 18.171875 12.734375 C 18.253906 12.609375 18.421875 12.574219 18.546875 12.660156 C 18.761719 12.800781 18.960938 12.960938 19.140625 13.136719 C 19.324219 13.3125 19.492188 13.507812 19.640625 13.714844 C 19.726562 13.835938 19.699219 14.003906 19.578125 14.09375 C 19.457031 14.179688 19.289062 14.152344 19.199219 14.03125 C 19.070312 13.851562 18.925781 13.683594 18.765625 13.527344 C 18.605469 13.375 18.429688 13.234375 18.246094 13.109375 Z M 19.476562 14.480469 C 19.40625 14.347656 19.460938 14.1875 19.59375 14.117188 C 19.726562 14.046875 19.886719 14.097656 19.957031 14.230469 C 20.03125 14.371094 20.09375 14.511719 20.152344 14.65625 C 20.210938 14.804688 20.257812 14.953125 20.296875 15.101562 C 20.597656 16.21875 20.421875 17.355469 19.890625 18.296875 C 19.363281 19.234375 18.480469 19.972656 17.367188 20.296875 C 17.222656 20.339844 17.070312 20.253906 17.03125 20.113281 C 16.988281 19.96875 17.070312 19.816406 17.214844 19.773438 C 18.1875 19.492188 18.957031 18.847656 19.417969 18.03125 C 19.878906 17.210938 20.03125 16.21875 19.769531 15.238281 C 19.734375 15.105469 19.691406 14.976562 19.644531 14.851562 C 19.597656 14.726562 19.539062 14.601562 19.476562 14.480469 Z M 15.976562 19.917969 C 16.125 19.925781 16.242188 20.050781 16.234375 20.203125 C 16.226562 20.351562 16.097656 20.464844 15.949219 20.460938 C 15.171875 20.417969 14.433594 20.164062 13.808594 19.746094 C 13.183594 19.324219 12.667969 18.742188 12.335938 18.039062 C 12.269531 17.90625 12.328125 17.742188 12.464844 17.679688 C 12.597656 17.613281 12.761719 17.671875 12.824219 17.808594 C 13.117188 18.421875 13.566406 18.929688 14.113281 19.292969 C 14.65625 19.660156 15.296875 19.878906 15.976562 19.917969 Z M 20.914062 16.082031 C 20.914062 15.960938 21.007812 15.863281 21.128906 15.859375 C 21.246094 15.855469 21.347656 15.949219 21.347656 16.070312 C 21.375 17.046875 21.125 17.988281 20.652344 18.800781 C 20.179688 19.617188 19.484375 20.300781 18.625 20.761719 C 18.519531 20.820312 18.386719 20.78125 18.332031 20.675781 C 18.273438 20.570312 18.3125 20.4375 18.417969 20.378906 C 19.207031 19.957031 19.84375 19.328125 20.273438 18.585938 C 20.710938 17.839844 20.9375 16.976562 20.914062 16.082031 Z M 17.253906 20.820312 C 17.371094 20.796875 17.488281 20.867188 17.515625 20.984375 C 17.542969 21.101562 17.472656 21.21875 17.355469 21.246094 C 17.1875 21.285156 17.015625 21.316406 16.835938 21.339844 C 16.660156 21.359375 16.484375 21.375 16.308594 21.378906 C 15.699219 21.394531 15.09375 21.300781 14.523438 21.109375 C 13.953125 20.917969 13.417969 20.625 12.941406 20.246094 C 12.847656 20.167969 12.832031 20.035156 12.90625 19.9375 C 12.980469 19.847656 13.117188 19.832031 13.210938 19.90625 C 13.648438 20.253906 14.140625 20.523438 14.664062 20.699219 C 15.1875 20.875 15.738281 20.960938 16.300781 20.945312 C 16.460938 20.941406 16.621094 20.929688 16.78125 20.90625 C 16.9375 20.886719 17.09375 20.859375 17.253906 20.820312 Z M 12.695312 19.425781 C 12.777344 19.511719 12.769531 19.648438 12.683594 19.730469 C 12.59375 19.8125 12.457031 19.808594 12.375 19.71875 C 12.164062 19.492188 11.976562 19.246094 11.8125 18.988281 C 11.644531 18.726562 11.503906 18.453125 11.386719 18.164062 C 11.339844 18.054688 11.394531 17.925781 11.503906 17.882812 C 11.613281 17.835938 11.742188 17.890625 11.789062 18 C 11.894531 18.261719 12.023438 18.515625 12.175781 18.753906 C 12.328125 18.992188 12.503906 19.21875 12.695312 19.425781 Z M 11.578125 17.359375 C 11.605469 17.472656 11.535156 17.59375 11.417969 17.621094 C 11.300781 17.652344 11.183594 17.578125 11.15625 17.464844 C 11.109375 17.28125 11.074219 17.097656 11.046875 16.90625 C 11.023438 16.722656 11.007812 16.53125 11 16.339844 C 10.964844 14.933594 11.496094 13.640625 12.386719 12.683594 C 13.277344 11.722656 14.527344 11.101562 15.9375 11.035156 C 16.058594 11.03125 16.15625 11.125 16.164062 11.242188 C 16.167969 11.363281 16.074219 11.464844 15.953125 11.46875 C 14.664062 11.53125 13.519531 12.101562 12.703125 12.976562 C 11.886719 13.855469 11.402344 15.039062 11.433594 16.332031 C 11.441406 16.503906 11.453125 16.675781 11.476562 16.851562 C 11.5 17.019531 11.535156 17.1875 11.578125 17.359375 Z M 17.53125 11.660156 C 17.417969 11.628906 17.351562 11.507812 17.386719 11.390625 C 17.421875 11.277344 17.542969 11.210938 17.65625 11.246094 C 18.5625 11.515625 19.359375 12.023438 19.980469 12.695312 C 20.597656 13.367188 21.039062 14.199219 21.238281 15.125 C 21.261719 15.246094 21.1875 15.359375 21.070312 15.382812 C 20.953125 15.410156 20.839844 15.335938 20.8125 15.214844 C 20.632812 14.367188 20.226562 13.605469 19.660156 12.988281 C 19.09375 12.375 18.363281 11.910156 17.53125 11.660156 Z M 10.910156 18.226562 C 11.425781 19.574219 12.460938 20.722656 13.882812 21.355469 C 15.304688 21.992188 16.851562 21.988281 18.199219 21.46875 C 19.546875 20.953125 20.695312 19.921875 21.332031 18.496094 C 21.964844 17.074219 21.960938 15.527344 21.445312 14.179688 C 20.925781 12.832031 19.894531 11.683594 18.472656 11.046875 C 17.046875 10.414062 15.5 10.417969 14.15625 10.9375 C 12.808594 11.453125 11.65625 12.484375 11.023438 13.910156 C 10.386719 15.332031 10.390625 16.875 10.910156 18.226562 Z M 13.660156 21.851562 C 12.101562 21.15625 10.972656 19.894531 10.402344 18.417969 C 9.835938 16.941406 9.832031 15.246094 10.527344 13.6875 C 11.222656 12.125 12.484375 10.996094 13.960938 10.429688 C 15.4375 9.863281 17.132812 9.859375 18.691406 10.550781 L 18.695312 10.550781 C 20.253906 11.246094 21.382812 12.507812 21.949219 13.988281 C 22.519531 15.464844 22.519531 17.15625 21.828125 18.71875 L 21.824219 18.71875 C 21.132812 20.277344 19.871094 21.410156 18.394531 21.976562 C 16.914062 22.542969 15.222656 22.546875 13.660156 21.851562 Z M 23.644531 23.144531 C 23.726562 23.058594 23.863281 23.054688 23.953125 23.136719 C 24.039062 23.21875 24.042969 23.355469 23.960938 23.445312 C 22.550781 24.929688 20.785156 25.953125 18.878906 26.460938 C 16.972656 26.964844 14.929688 26.953125 12.972656 26.363281 C 12.855469 26.328125 12.792969 26.207031 12.824219 26.09375 C 12.859375 25.976562 12.980469 25.910156 13.097656 25.945312 C 14.976562 26.511719 16.941406 26.523438 18.769531 26.039062 C 20.597656 25.554688 22.292969 24.570312 23.644531 23.144531 Z M 10.605469 24.824219 C 10.707031 24.886719 10.738281 25.019531 10.675781 25.121094 C 10.613281 25.222656 10.476562 25.253906 10.375 25.191406 C 10.066406 25 9.761719 24.789062 9.46875 24.5625 C 9.179688 24.339844 8.898438 24.097656 8.632812 23.84375 C 7.703125 22.964844 6.945312 21.929688 6.382812 20.800781 C 5.824219 19.671875 5.460938 18.445312 5.316406 17.171875 C 5.304688 17.054688 5.390625 16.945312 5.507812 16.933594 C 5.628906 16.917969 5.738281 17.003906 5.75 17.125 C 5.882812 18.347656 6.234375 19.527344 6.773438 20.609375 C 7.3125 21.691406 8.039062 22.683594 8.929688 23.53125 C 9.1875 23.773438 9.457031 24.003906 9.734375 24.21875 C 10.011719 24.433594 10.304688 24.636719 10.605469 24.824219 Z M 5.695312 15.574219 C 5.691406 15.695312 5.589844 15.789062 5.472656 15.785156 C 5.351562 15.78125 5.257812 15.679688 5.261719 15.5625 C 5.289062 14.910156 5.371094 14.269531 5.511719 13.636719 C 5.652344 13.003906 5.847656 12.382812 6.097656 11.789062 C 6.144531 11.675781 6.269531 11.625 6.382812 11.671875 C 6.492188 11.71875 6.542969 11.84375 6.5 11.957031 C 6.257812 12.53125 6.066406 13.128906 5.933594 13.730469 C 5.800781 14.335938 5.71875 14.953125 5.695312 15.574219 Z M 7.167969 10.632812 C 7.105469 10.734375 6.972656 10.769531 6.871094 10.707031 C 6.765625 10.644531 6.734375 10.511719 6.792969 10.410156 C 6.996094 10.070312 7.21875 9.742188 7.460938 9.425781 C 7.703125 9.105469 7.960938 8.804688 8.230469 8.519531 C 10.261719 6.378906 12.960938 5.246094 15.703125 5.148438 C 18.441406 5.046875 21.214844 5.980469 23.398438 7.96875 C 23.484375 8.046875 23.492188 8.1875 23.410156 8.273438 C 23.332031 8.363281 23.195312 8.371094 23.105469 8.289062 C 21.011719 6.378906 18.34375 5.484375 15.714844 5.582031 C 13.089844 5.675781 10.496094 6.761719 8.542969 8.816406 C 8.28125 9.097656 8.035156 9.386719 7.804688 9.6875 C 7.578125 9.988281 7.363281 10.304688 7.167969 10.632812 Z M 25.25 11.035156 C 25.195312 10.929688 25.234375 10.796875 25.339844 10.742188 C 25.445312 10.683594 25.578125 10.722656 25.632812 10.828125 C 26.574219 12.574219 27.003906 14.503906 26.925781 16.414062 C 26.851562 18.328125 26.269531 20.21875 25.191406 21.882812 C 25.125 21.980469 24.988281 22.007812 24.890625 21.945312 C 24.789062 21.878906 24.761719 21.746094 24.824219 21.644531 C 25.863281 20.050781 26.421875 18.234375 26.496094 16.398438 C 26.566406 14.566406 26.15625 12.710938 25.25 11.035156 Z M 4.015625 20.597656 C 2.742188 17.269531 2.933594 13.734375 4.28125 10.714844 C 5.625 7.691406 8.125 5.183594 11.457031 3.902344 L 11.472656 3.894531 C 14.804688 2.621094 18.339844 2.8125 21.363281 4.160156 C 24.386719 5.503906 26.894531 8.003906 28.179688 11.335938 L 28.183594 11.351562 C 29.460938 14.683594 29.269531 18.21875 27.921875 21.242188 C 26.578125 24.265625 24.078125 26.777344 20.746094 28.058594 L 20.742188 28.058594 C 20.734375 28.0625 20.730469 28.066406 20.722656 28.066406 C 17.390625 29.339844 13.859375 29.144531 10.839844 27.800781 C 7.816406 26.457031 5.304688 23.957031 4.023438 20.621094 Z M 4.519531 20.398438 C 4.523438 20.414062 4.53125 20.429688 4.535156 20.445312 C 5.765625 23.628906 8.167969 26.019531 11.058594 27.304688 C 13.953125 28.59375 17.339844 28.78125 20.53125 27.558594 L 20.546875 27.554688 C 23.742188 26.328125 26.136719 23.917969 27.425781 21.019531 C 28.71875 18.121094 28.902344 14.730469 27.675781 11.535156 C 26.449219 8.339844 24.042969 5.941406 21.144531 4.652344 C 18.253906 3.363281 14.871094 3.175781 11.679688 4.394531 C 11.667969 4.402344 11.652344 4.40625 11.632812 4.414062 C 8.449219 5.640625 6.0625 8.042969 4.773438 10.9375 C 3.488281 13.828125 3.300781 17.210938 4.519531 20.398438 Z M 17.226562 1.644531 C 17.109375 1.632812 17.019531 1.53125 17.027344 1.410156 C 17.039062 1.289062 17.144531 1.199219 17.261719 1.210938 C 20.050781 1.429688 22.65625 2.425781 24.832031 4.011719 C 27.007812 5.601562 28.75 7.78125 29.808594 10.367188 C 29.855469 10.480469 29.800781 10.605469 29.691406 10.652344 C 29.578125 10.695312 29.453125 10.644531 29.40625 10.53125 C 28.378906 8.019531 26.6875 5.902344 24.578125 4.363281 C 22.464844 2.824219 19.933594 1.855469 17.226562 1.644531 Z M 17.226562 1.644531 "/>
</g>
</g>
</svg>
